<?xml version="1.0" encoding="UTF-8" standalone="no"?>
<!DOCTYPE svg PUBLIC "-//W3C//DTD SVG 1.1//EN" "http://www.w3.org/Graphics/SVG/1.1/DTD/svg11.dtd">
<svg width="32px" height="32px" viewBox="0 0 1146 1945" version="1.1" xmlns="http://www.w3.org/2000/svg" xmlns:xlink="http://www.w3.org/1999/xlink" xml:space="preserve" xmlns:serif="http://www.serif.com/" style="fill-rule:evenodd;clip-rule:evenodd;stroke-linejoin:round;stroke-miterlimit:2;">
    <g transform="matrix(2,0,0,2,-431.879,-406.27)">
        <g transform="matrix(1.33333,0,0,1.33333,0,0)">
            <g transform="matrix(1,0,0,1,0,4.06157)">
                <g transform="matrix(1,0,0,1,-4.60697,-51.715)">
                    <path d="M456.028,779.644L575.05,779.644C580.6,779.644 585.923,777.439 589.848,773.514C593.773,769.59 595.977,764.267 595.977,758.716L595.977,220.965C595.977,209.389 586.593,200.005 575.017,200.005L268.022,200.005C268.022,200.005 378.66,282.886 430.006,321.35C446.132,333.43 455.633,352.396 455.651,372.545C455.745,473.665 456.028,779.644 456.028,779.644Z" style="fill:rgb(31,207,66);"/>
                </g>
                <g transform="matrix(1,0,0,1,-4.60697,-51.715)">
                    <path d="M167.035,222.636C167.043,214.33 171.732,206.739 179.155,203.013C186.578,199.288 195.467,200.065 202.131,205.022L406.645,357.166C410.61,360.116 412.949,364.766 412.954,369.709L413.45,907.249C413.457,915.51 408.814,923.071 401.443,926.8C394.072,930.529 385.23,929.791 378.58,924.891L175.948,775.608C170.04,771.255 166.556,764.353 166.562,757.015L167.035,222.636ZM316.341,629.708C316.341,641.542 326.197,651.15 338.337,651.15C350.372,651.15 360.163,641.708 360.331,630.015L360.35,630.016L360.35,586.451C360.358,586.212 360.362,585.971 360.362,585.73C360.362,573.896 350.506,564.288 338.366,564.288C326.226,564.288 316.37,573.896 316.37,585.73L316.341,629.708Z" style="fill:rgb(31,207,66);"/>
                </g>
            </g>
        </g>
    </g>
</svg>
